<svg width="16" height="16" viewBox="0 0 16 16" fill="none" xmlns="http://www.w3.org/2000/svg">
<path fill-rule="evenodd" clip-rule="evenodd" d="M5.8344 11.7655C5.68443 11.6155 5.60017 11.4121 5.60017 11.1999C5.60017 10.9878 5.68443 10.7844 5.8344 10.6343L8.4688 7.99994L5.8344 5.36554C5.68868 5.21465 5.60804 5.01257 5.60986 4.80281C5.61169 4.59306 5.69582 4.39241 5.84415 4.24408C5.99247 4.09575 6.19312 4.01162 6.40288 4.0098C6.61264 4.00797 6.81472 4.08861 6.9656 4.23434L10.1656 7.43434C10.3156 7.58436 10.3998 7.7878 10.3998 7.99994C10.3998 8.21207 10.3156 8.41551 10.1656 8.56554L6.9656 11.7655C6.81558 11.9155 6.61213 11.9998 6.4 11.9998C6.18787 11.9998 5.98443 11.9155 5.8344 11.7655Z" fill="#FAF6F6"/>
</svg>
